<svg version="1.1" xmlns="http://www.w3.org/2000/svg" width="512" height="512">
  <defs>
    <!-- Define an animated linear gradient -->
    <linearGradient id="grad" x1="0%" y1="0%" x2="100%" y2="0%">
      <stop offset="0%" stop-color="#00bfa5">
        <animate attributeName="offset" values="-1;1;-1" dur="5s" repeatCount="indefinite" />
      </stop>
      <stop offset="50%" stop-color="#54c5ba">
        <animate attributeName="offset" values="0;2;0" dur="5s" repeatCount="indefinite" />
      </stop>
      <stop offset="100%" stop-color="#8cf0df">
        <animate attributeName="offset" values="1;3;1" dur="5s" repeatCount="indefinite" />
      </stop>
    </linearGradient>


  </defs>

  <!-- Your arrow path -->
  <path 
    d="M0 0 C1.77437125 0.8593443 3.54945 1.71722913 5.32519531 2.57373047 C8.98522284 4.34032151 12.64228563 6.11284024 16.29736328 7.88964844 C23.70576746 11.48500825 31.15021764 15.00353041 38.59667969 18.51919556 C40.93510331 19.6238678 43.27241968 20.7308483 45.609375 21.83862305 C53.65095466 25.65003013 61.69882381 29.4476807 69.75390625 33.23046875 C72.21284748 34.38661203 74.67168514 35.54297531 77.13049316 36.69940186 C79.42933682 37.77930531 81.72976565 38.85577629 84.03027344 39.93212891 C107.99014748 51.1755364 107.99014748 51.1755364 111.6875 60.5 C111.98828125 63.7421875 111.98828125 63.7421875 112 67.375 C112.01675781 68.56867188 112.03351562 69.76234375 112.05078125 70.9921875 C111.38578257 77.4133576 108.52406156 81.36779206 103.6875 85.5 C101.08644114 87.17876521 98.38273888 88.59675957 95.625 90 C94.80773437 90.4230542 93.99046875 90.8461084 93.1484375 91.28198242 C84.14246 95.88196117 74.94918749 100.08498952 65.76145935 104.30612183 C58.19436787 107.7844454 50.68137662 111.36657204 43.1875 115 C32.77299451 120.04359841 22.30478936 124.95954207 11.79882812 129.80957031 C3.52120124 133.63416222 -4.71978519 137.52906411 -12.91943359 141.51831055 C-13.70914551 141.89898682 -14.49885742 142.27966309 -15.3125 142.671875 C-15.993125 143.0028418 -16.67375 143.33380859 -17.375 143.67480469 C-23.55221059 146.30572351 -30.65229402 146.6677052 -37.04296875 144.62890625 C-44.17986868 141.33578298 -48.39031027 137.23050566 -51.9609375 130.30078125 C-54.38360801 123.56630164 -53.62037636 116.04219488 -53.5 109 C-53.438125 103.885 -53.37625 98.77 -53.3125 93.5 C-73.4425 93.83 -93.5725 94.16 -114.3125 94.5 C-114.19502085 107.70564369 -114.19502085 107.70564369 -114.04223633 120.91088867 C-113.91613393 137.17972372 -114.88900188 153.86738618 -120.4375 169.3125 C-120.88536865 170.60003174 -120.88536865 170.60003174 -121.34228516 171.91357422 C-126.0688442 184.93276628 -132.95976557 196.26892182 -142.3125 206.5 C-143.40884766 207.70076172 -143.40884766 207.70076172 -144.52734375 208.92578125 C-162.06710672 227.26700966 -187.70657929 237.97338128 -212.94140625 238.8359375 C-244.49802594 239.24626148 -272.01421281 231.59497776 -295.3125 209.5 C-319.51161817 185.90680654 -326.41016857 154.61893262 -326.83569336 121.97583008 C-326.84866455 120.93193115 -326.86163574 119.88803223 -326.875 118.8125 C-326.91899705 115.63918266 -326.96558925 112.46596341 -327.01780701 109.29277039 C-327.04967585 107.33078029 -327.07659315 105.36870216 -327.09803772 103.40657043 C-327.11152756 102.5277269 -327.1250174 101.64888336 -327.13891602 100.7434082 C-327.14842789 99.96987503 -327.15793976 99.19634186 -327.16773987 98.39936829 C-327.19884034 96.41236196 -327.19884034 96.41236196 -328.3125 94.5 C-328.97933807 94.49857498 -329.64617615 94.49714996 -330.33322144 94.49568176 C-337.30979903 94.47590768 -344.28551076 94.42146859 -351.26171875 94.34741211 C-353.86093929 94.32429715 -356.46025262 94.30985178 -359.05957031 94.30444336 C-362.80852662 94.29510688 -366.55603624 94.25400867 -370.3046875 94.20703125 C-371.45613251 94.2109639 -372.60757751 94.21489655 -373.79391479 94.21894836 C-381.32995219 94.08442184 -386.9873969 92.71134138 -393.3125 88.5 C-395.56640625 86.1484375 -395.56640625 86.1484375 -396.875 83.875 C-397.33003906 83.11960937 -397.78507812 82.36421875 -398.25390625 81.5859375 C-400.6643492 76.83620858 -400.6001382 72.51846883 -400.6875 67.3125 C-400.74357422 66.0740332 -400.74357422 66.0740332 -400.80078125 64.81054688 C-400.89113712 58.44045802 -399.32698302 54.43882248 -395.3125 49.5 C-393.3203125 47.4765625 -393.3203125 47.4765625 -391.4375 46.125 C-390.82132812 45.66351563 -390.20515625 45.20203125 -389.5703125 44.7265625 C-383.40444301 41.3769379 -377.36423439 41.20631797 -370.50927734 41.2253418 C-369.55068314 41.22023087 -368.59208893 41.21511993 -367.60444641 41.20985413 C-364.45237904 41.19601261 -361.30053154 41.19691023 -358.1484375 41.19921875 C-355.95081501 41.19533002 -353.75319328 41.19099498 -351.55557251 41.18623352 C-346.95759642 41.1787839 -342.35969714 41.17905436 -337.76171875 41.18432617 C-331.86917854 41.19013183 -325.97695152 41.1731571 -320.08446312 41.1499815 C-315.54973513 41.1352564 -311.0150829 41.13437058 -306.48033524 41.13749123 C-304.30741376 41.13697782 -302.13448807 41.13173646 -299.96158981 41.12167931 C-296.9264962 41.10935047 -293.89201727 41.11608446 -290.85693359 41.12768555 C-289.51180946 41.11621994 -289.51180946 41.11621994 -288.13951111 41.10452271 C-283.44167323 41.14423559 -279.9986274 41.24862257 -276.3125 44.5 C-273.68641672 48.81766571 -274.03931217 53.4686659 -274.07299805 58.36669922 C-274.07098389 59.25041702 -274.06896973 60.13413483 -274.06689453 61.04463196 C-274.06335432 62.96088219 -274.06410959 64.87714411 -274.06867027 66.79339218 C-274.07428252 69.83929526 -274.0650704 72.88482012 -274.0514679 75.93069458 C-274.01444028 84.59020581 -273.99572749 93.24959144 -274.00708008 101.90917969 C-274.01297763 107.21253427 -273.9944403 112.51536049 -273.96119118 117.81860733 C-273.95330402 119.82694139 -273.95442202 121.83533409 -273.96521568 123.84365463 C-274.06342132 142.95405291 -270.95684009 157.3435845 -257.5 171.75 C-247.70263753 181.05937123 -234.9983095 185.88276766 -221.54296875 186.59375 C-206.49780034 186.15713084 -193.54346544 181.43691632 -182.56640625 170.91796875 C-168.52595149 155.85550515 -167.01773122 139.30776443 -167.09923553 119.63696671 C-167.10955278 116.64373469 -167.10401878 113.65091309 -167.09381104 110.65768433 C-167.06597698 102.15582717 -167.05347663 93.65421187 -167.08251953 85.15234375 C-167.09922518 79.93283132 -167.08698362 74.71406316 -167.05606842 69.49462509 C-167.04996438 67.51150705 -167.05483335 65.52832336 -167.07094574 63.54526138 C-167.09251358 60.77819649 -167.07728361 58.01357841 -167.05371094 55.24658203 C-167.06907394 54.4309227 -167.08443695 53.61526337 -167.1002655 52.77488708 C-167.0231649 48.53875179 -166.63816146 46.91032778 -163.92263794 43.48881531 C-159.59055222 40.49244803 -154.8951331 40.83897901 -149.80908203 40.93237305 C-148.76457382 40.93164291 -147.72006561 40.93091278 -146.64390564 40.93016052 C-143.20217397 40.93363528 -139.76180685 40.97249347 -136.3203125 41.01171875 C-133.92992899 41.02104721 -131.5395359 41.02816317 -129.1491394 41.03315735 C-122.86561571 41.0522242 -116.58267228 41.10132353 -110.29937744 41.15667725 C-103.88456064 41.20787574 -97.46964984 41.23067275 -91.0546875 41.25585938 C-78.47371115 41.30944154 -65.89313647 41.39378689 -53.3125 41.5 C-53.33344727 40.57775635 -53.35439453 39.6555127 -53.37597656 38.70532227 C-53.44463681 35.24428069 -53.49453229 31.78397524 -53.53222656 28.32250977 C-53.55219458 26.83183282 -53.5793792 25.3412327 -53.61425781 23.85083008 C-53.80702039 15.39478947 -53.94167508 7.93101537 -49.3125 0.5 C-48.755625 -0.4075 -48.19875 -1.315 -47.625 -2.25 C-32.644758 -16.8253706 -15.80638023 -7.76690874 0 0 Z"
    fill="url(#grad)" transform="translate(400.3125,141.5)" />
</svg>
